:FULLY-SPECIFIED
:FORCE-ALL-JOINTS-BE-3DOF
:DEGREES
404
root 9.69037 16.7439 20.6197 7.05059 -1.27335 -8.09125
lfemur -42.6217 0.813341 -10.8909
ltibia 26.6303 0 0
lfoot -12.4065 9.15991 0
ltoes -12.6197 0 0
rfemur 20.1311 5.96934 33.6087
rtibia -1.07849 0 0
rfoot -6.3093 7.35372 0
rtoes -15.4149 0 0
lowerback -8.75535 3.3657 3.43973
upperback -0.180051 3.94167 3.98034
thorax 4.6672 1.98712 2.73063
lowerneck -19.2234 -6.34609 -13.3736
upperneck 21.1844 -8.16165 13.1056
head 11.1661 -3.30201 5.77567
lclavicle 5.91145e-14 5.32946e-14 0
lhumerus -54.9099 -9.42205 96.7496
lradius 26.7999 0 0
lwrist 6.96384 0 0
lhand -9.42357 -25.0965 0
lfingers 7.12502 0 0
lthumb 16.5386 4.21718 0
rclavicle 5.91145e-14 5.32946e-14 0
rhumerus -29.1319 14.5091 -85.9968
rradius 38.6737 0 0
rwrist -17.5236 0 0
rhand -29.4976 -22.1201 0
rfingers 7.12502 0 0
rthumb -2.8323 -52.0811 0
405
root 9.70583 16.7425 20.7545 7.03264 -1.35815 -8.06509
lfemur -42.66 0.747781 -11.0092
ltibia 26.1232 0 0
lfoot -12.5169 9.08667 0
ltoes -12.5694 0 0
rfemur 20.2303 5.91188 33.5324
rtibia -0.916293 0 0
rfoot -6.28808 7.28199 0
rtoes -15.4775 0 0
lowerback -8.77152 3.37672 3.43036
upperback -0.156708 3.95662 3.97109
thorax 4.70073 1.99388 2.72757
lowerneck -19.2534 -6.32107 -13.3464
upperneck 21.2186 -8.12438 13.0676
head 11.1768 -3.28647 5.76396
lclavicle 5.90164e-14 5.34461e-14 0
lhumerus -54.7376 -9.32894 96.6127
lradius 26.7703 0 0
lwrist 6.86019 0 0
lhand -9.39899 -25.1399 0
lfingers 7.12502 0 0
lthumb 16.5622 4.17219 0
rclavicle 5.90164e-14 5.34461e-14 0
rhumerus -29.1154 14.4698 -86.0179
rradius 38.6358 0 0
rwrist -17.4345 0 0
rhand -29.5007 -22.1168 0
rfingers 7.12502 0 0
rthumb -2.83529 -52.0779 0
406
root 9.72131 16.7421 20.8898 7.01409 -1.4361 -8.0341
lfemur -42.6797 0.68732 -11.1315
ltibia 25.6437 0 0
lfoot -12.6233 9.01433 0
ltoes -12.5124 0 0
rfemur 20.2968 5.85319 33.4505
rtibia -0.726699 0 0
rfoot -6.27373 7.20503 0
rtoes -15.5381 0 0
lowerback -8.78559 3.38369 3.41755
upperback -0.134103 3.96659 3.96083
thorax 4.73249 1.99812 2.72482
lowerneck -19.2841 -6.29574 -13.319
upperneck 21.2524 -8.08675 13.0302
head 11.1874 -3.27069 5.75249
lclavicle 5.88922e-14 5.35596e-14 0
lhumerus -54.5523 -9.24581 96.4776
lradius 26.7403 0 0
lwrist 6.75783 0 0
lhand -9.37776 -25.18 0
lfingers 7.12502 0 0
lthumb 16.5827 4.1307 0
rclavicle 5.88922e-14 5.35596e-14 0
rhumerus -29.1079 14.4299 -86.0384
rradius 38.5988 0 0
rwrist -17.3492 0 0
rhand -29.5044 -22.1176 0
rfingers 7.12502 0 0
rthumb -2.83882 -52.0785 0
407
root 9.73681 16.7425 21.0258 6.99499 -1.50709 -7.99839
lfemur -42.6809 0.632056 -11.2574
ltibia 25.1927 0 0
lfoot -12.7255 8.94306 0
ltoes -12.4492 0 0
rfemur 20.3307 5.7934 33.3633
rtibia -0.510354 0 0
rfoot -6.26624 7.12304 0
rtoes -15.5965 0 0
lowerback -8.79755 3.38662 3.40136
upperback -0.112281 3.9716 3.94959
thorax 4.76242 1.99986 2.72238
lowerneck -19.3152 -6.27015 -13.2915
upperneck 21.2859 -8.04886 12.9934
head 11.1981 -3.25469 5.7413
lclavicle 5.87424e-14 5.3635e-14 0
lhumerus -54.3544 -9.17275 96.3447
lradius 26.71 0 0
lwrist 6.65698 0 0
lhand -9.35988 -25.2168 0
lfingers 7.12502 0 0
lthumb 16.5999 4.09279 0
rclavicle 5.87424e-14 5.3635e-14 0
rhumerus -29.1094 14.3895 -86.0583
rradius 38.5628 0 0
rwrist -17.268 0 0
rhand -29.5086 -22.1223 0
rfingers 7.12502 0 0
rthumb -2.84289 -52.0832 0
